<?xml version="1.0" standalone="no"?>
<!DOCTYPE svg PUBLIC "-//W3C//DTD SVG 20010904//EN"
 "http://www.w3.org/TR/2001/REC-SVG-20010904/DTD/svg10.dtd">
<svg version="1.0" xmlns="http://www.w3.org/2000/svg"
 width="314.000000pt" height="314.000000pt" viewBox="0 0 314.000000 314.000000"
 preserveAspectRatio="xMidYMid meet">
<metadata>
Created by potrace 1.14, written by Peter Selinger 2001-2017
</metadata>
<g transform="translate(0.000000,314.000000) scale(0.100000,-0.100000)"
fill="#000000" stroke="none">
<path d="M1445 3098 c-414 -40 -812 -255 -1043 -564 -34 -45 -67 -88 -75 -95
-19 -21 -112 -153 -111 -159 1 -6 -14 -47 -27 -72 -5 -10 -9 -29 -9 -43 0 -15
-6 -25 -15 -25 -9 0 -12 -6 -8 -16 4 -10 -1 -17 -16 -21 -11 -3 -21 -10 -21
-15 0 -6 7 -8 15 -4 8 3 15 1 15 -5 0 -6 -9 -13 -20 -16 -11 -3 -23 -17 -26
-32 -4 -14 -11 -31 -16 -37 -4 -6 -5 -20 -1 -29 5 -14 3 -17 -10 -12 -8 3 -21
-1 -29 -10 -15 -18 -20 -83 -7 -83 5 0 9 5 9 12 0 6 3 9 6 6 3 -3 -2 -41 -10
-84 -9 -47 -11 -80 -5 -82 14 -5 11 -62 -3 -62 -10 0 -9 -3 1 -9 11 -7 11 -10
-3 -18 -8 -5 -17 -22 -20 -38 -2 -17 -1 -23 1 -15 12 37 23 31 18 -10 -15
-128 -13 -159 15 -225 15 -36 21 -77 11 -71 -6 4 -15 -2 -21 -13 -8 -16 -6
-30 6 -58 l16 -38 9 28 c4 16 5 36 3 45 -3 10 1 6 9 -7 l14 -24 5 27 c3 16 0
33 -8 41 -18 18 -18 41 1 49 12 4 14 15 9 47 -10 63 16 46 41 -27 45 -130 45
-130 55 -114 8 12 14 10 38 -13 15 -15 31 -27 34 -27 3 0 2 19 -2 43 -16 83
-20 113 -26 207 -7 94 -7 94 -20 55 -6 -22 -12 -33 -13 -25 -2 32 21 185 28
190 5 3 13 28 20 55 18 74 34 92 28 30 l-6 -50 18 50 c10 28 24 49 30 47 6 -1
11 8 12 20 0 13 3 17 6 10 6 -16 -16 -112 -27 -112 -13 0 -32 -142 -28 -210 4
-59 4 -57 6 24 1 49 4 87 6 85 2 -2 7 -54 10 -114 10 -181 32 -277 87 -385 42
-84 64 -107 38 -40 -136 346 -130 683 16 1028 62 148 112 225 210 330 437 464
1106 543 1635 194 97 -65 242 -204 318 -307 61 -83 152 -262 181 -358 79 -262
74 -559 -15 -809 -106 -296 -340 -560 -626 -704 -160 -81 -386 -134 -567 -134
l-81 0 2 523 3 522 183 1 c101 1 187 5 191 10 9 11 185 264 195 281 5 9 -51
12 -236 12 -134 0 -265 0 -291 0 l-48 1 3 137 3 137 348 0 c344 0 347 0 348
20 3 54 4 262 2 271 -2 7 -175 10 -501 10 l-497 0 -3 -1077 c-2 -1019 -1
-1077 15 -1082 129 -38 405 -53 563 -31 531 74 969 392 1196 869 103 218 146
410 147 656 0 185 -20 318 -74 482 -159 488 -558 870 -1049 1007 -171 47 -391
67 -565 49z m-951 -830 c-9 -18 -20 -35 -23 -38 -4 -3 -17 -18 -29 -34 -38
-50 -24 -8 19 55 43 64 62 74 33 17z m-169 -325 c-4 -10 -23 -61 -41 -113 -18
-52 -33 -88 -33 -80 -1 30 38 165 49 168 5 2 10 12 10 23 0 10 5 19 11 19 7 0
8 -7 4 -17z"/>
<path d="M95 1290 c-3 -5 1 -10 10 -10 9 0 13 5 10 10 -3 6 -8 10 -10 10 -2 0
-7 -4 -10 -10z"/>
<path d="M80 1140 c0 -5 5 -10 10 -10 6 0 10 5 10 10 0 6 -4 10 -10 10 -5 0
-10 -4 -10 -10z"/>
<path d="M106 1124 c-10 -25 -7 -54 5 -54 6 0 9 7 5 15 -3 8 -1 15 4 15 5 0
11 -8 13 -17 4 -17 5 -17 6 0 0 10 -5 20 -13 23 -8 3 -12 12 -9 20 3 8 3 14 0
14 -3 0 -8 -7 -11 -16z"/>
<path d="M337 1083 c17 -51 41 -88 28 -43 -12 39 -33 90 -39 90 -3 0 2 -21 11
-47z"/>
<path d="M150 1105 c0 -8 7 -15 16 -15 14 0 14 3 4 15 -7 8 -14 15 -16 15 -2
0 -4 -7 -4 -15z"/>
<path d="M94 1048 c-5 -7 -3 -8 6 -3 10 6 12 4 7 -8 -4 -11 -2 -14 9 -10 7 3
14 11 14 19 0 17 -26 19 -36 2z"/>
<path d="M151 952 c-12 -23 -12 -94 0 -86 5 3 6 18 2 34 -3 18 0 36 7 45 7 9
10 18 7 21 -3 3 -10 -3 -16 -14z"/>
<path d="M348 873 c40 -84 71 -139 72 -130 0 13 -81 176 -91 183 -5 3 4 -21
19 -53z"/>
<path d="M178 878 c14 -14 16 -32 3 -24 -5 4 -7 -3 -4 -14 3 -11 9 -18 13 -15
5 3 12 0 16 -6 4 -8 3 -9 -4 -5 -8 5 -12 0 -12 -13 0 -11 5 -23 11 -26 6 -4 8
-13 5 -21 -4 -9 2 -14 15 -14 14 0 19 -5 16 -14 -5 -14 21 -46 37 -46 5 0 5
12 1 28 -4 15 -7 35 -7 45 0 9 -4 17 -9 17 -9 0 -31 43 -33 65 -2 23 -28 55
-43 55 -13 0 -14 -3 -5 -12z"/>
<path d="M530 878 c0 -28 94 -168 133 -199 39 -30 33 -13 -16 45 -24 28 -60
76 -80 106 -20 30 -37 52 -37 48z"/>
<path d="M285 710 c3 -5 8 -10 11 -10 2 0 4 5 4 10 0 6 -5 10 -11 10 -5 0 -7
-4 -4 -10z"/>
<path d="M291 665 c-1 -24 14 -50 22 -38 3 4 -1 19 -9 33 -12 22 -13 23 -13 5z"/>
<path d="M330 607 c0 -14 5 -29 10 -32 7 -4 10 3 8 19 -5 35 -18 45 -18 13z"/>
<path d="M365 510 c3 -5 8 -10 11 -10 2 0 4 5 4 10 0 6 -5 10 -11 10 -5 0 -7
-4 -4 -10z"/>
<path d="M440 505 c0 -8 7 -15 15 -15 8 0 15 4 15 9 0 5 -7 11 -15 15 -9 3
-15 0 -15 -9z"/>
</g>
</svg>
